<svg width="2037" height="564" viewBox="0 0 2037 564" fill="none" xmlns="http://www.w3.org/2000/svg">
<path d="M1884.17 238.598L2010.9 285.578C2026.59 291.393 2037 306.355 2037 323.084V432.32C2037 454.411 2019.09 472.32 1997 472.32H1815.95C1809.39 472.32 1802.93 473.933 1797.14 477.018L1699.01 529.302C1693.22 532.387 1686.76 534 1680.2 534H1386.07C1377.16 534 1368.51 531.025 1361.48 525.547L1304.04 480.773C1297.02 475.295 1288.36 472.32 1279.45 472.32H1065.07C1059.67 472.32 1054.31 473.417 1049.34 475.545L922.619 529.766C917.646 531.894 912.293 532.991 906.883 532.991H731.107C721.414 532.991 712.052 529.472 704.759 523.088L658.079 482.223C650.786 475.839 641.424 472.32 631.732 472.32H264.193C255.554 472.32 247.148 469.523 240.231 464.349L104.821 363.044C97.9039 357.869 89.4976 355.072 80.8591 355.072H67C44.9086 355.072 27 337.164 27 315.072V179.797C27 175.441 27.7115 171.114 29.1066 166.988L73.0613 36.9629C78.1815 21.8166 91.8293 11.1742 107.767 9.89995L231.593 0H666.567C687.07 0 704.254 15.5031 706.356 35.8983L712.371 94.2504C714.474 114.646 731.657 130.149 752.16 130.149H904.212C911.329 130.149 918.318 128.25 924.456 124.648L1071.26 38.5011C1077.4 34.899 1084.39 33 1091.51 33H1439L1757.32 65.8027C1770.29 67.1397 1781.8 74.7181 1788.15 86.1092L1863.14 220.575C1867.78 228.896 1875.24 235.287 1884.17 238.598Z" fill="#2A808D" fill-opacity="0.3"/>
<path d="M1861.2 271.209L1987.78 317.644C2003.53 323.423 2014 338.418 2014 355.197V462.84C2014 484.931 1996.09 502.84 1974 502.84H1792.4C1785.9 502.84 1779.49 504.424 1773.74 507.457L1675.26 559.383C1669.51 562.415 1663.1 564 1656.6 564H1361.64C1352.8 564 1344.2 561.071 1337.2 555.671L1279.52 511.169C1272.52 505.769 1263.93 502.84 1255.08 502.84H1040.05C1034.69 502.84 1029.38 503.916 1024.45 506.006L897.326 559.834C892.392 561.923 887.088 563 881.729 563H705.36C695.739 563 686.44 559.532 679.169 553.233L632.274 512.607C625.003 506.307 615.704 502.84 606.083 502.84H237.527C228.957 502.84 220.614 500.087 213.726 494.988L77.905 394.432C71.0172 389.333 62.6738 386.58 54.1039 386.58H40C17.9086 386.58 0 368.672 0 346.58V246.26C0 224.168 17.9086 206.26 40 206.26H48.1001C60.2369 206.26 71.7173 200.749 79.309 191.28L192.991 49.4798C200.582 40.0104 212.063 34.5 224.199 34.5H640.95C661.437 34.5 678.612 49.979 680.735 70.3557L686.708 127.696C688.831 148.073 706.006 163.552 726.493 163.552H919.365C926.334 163.552 933.182 161.731 939.23 158.271L1087.77 73.2813C1093.82 69.8206 1100.67 68 1107.63 68H1314L1722.33 77.9362C1736.66 78.2849 1749.71 86.2757 1756.53 98.8821L1839.8 252.699C1844.44 261.27 1852.05 267.852 1861.2 271.209Z" fill="#2A8086"/>
<path d="M1861.2 271.209L1987.78 317.644C2003.53 323.423 2014 338.418 2014 355.197V462.84C2014 484.931 1996.09 502.84 1974 502.84H1792.4C1785.9 502.84 1779.49 504.424 1773.74 507.457L1675.26 559.383C1669.51 562.415 1663.1 564 1656.6 564H1361.64C1352.8 564 1344.2 561.071 1337.2 555.671L1279.52 511.169C1272.52 505.769 1263.93 502.84 1255.08 502.84H1040.05C1034.69 502.84 1029.38 503.916 1024.45 506.006L897.326 559.834C892.392 561.923 887.088 563 881.729 563H705.36C695.739 563 686.44 559.532 679.169 553.233L632.274 512.607C625.003 506.307 615.704 502.84 606.083 502.84H237.527C228.957 502.84 220.614 500.087 213.726 494.988L77.905 394.432C71.0172 389.333 62.6738 386.58 54.1039 386.58H40C17.9086 386.58 0 368.672 0 346.58V246.26C0 224.168 17.9086 206.26 40 206.26H48.1001C60.2369 206.26 71.7173 200.749 79.309 191.28L192.991 49.4798C200.582 40.0104 212.063 34.5 224.199 34.5H640.95C661.437 34.5 678.612 49.979 680.735 70.3557L686.708 127.696C688.831 148.073 706.006 163.552 726.493 163.552H919.365C926.334 163.552 933.182 161.731 939.23 158.271L1087.77 73.2813C1093.82 69.8206 1100.67 68 1107.63 68H1314L1722.33 77.9362C1736.66 78.2849 1749.71 86.2757 1756.53 98.8821L1839.8 252.699C1844.44 261.27 1852.05 267.852 1861.2 271.209Z" fill="#2A8086"/>
</svg>
