<svg width="2014" height="523" viewBox="0 0 2014 523" fill="none" xmlns="http://www.w3.org/2000/svg">
<path d="M127.95 143.296L12.1662 255.477C4.38973 263.011 0 273.376 0 284.204V402.84C0 424.931 17.9086 442.84 40 442.84H109.673H446.5H745.28H975.221C979.757 442.84 984.26 443.611 988.537 445.121L1117.69 490.718C1121.97 492.228 1126.47 493 1131 493H1317.33C1321.46 493 1325.56 492.361 1329.49 491.106L1571.86 413.734C1575.8 412.479 1579.9 411.84 1584.03 411.84H1838H1938.77C1952.59 411.84 1965.44 404.7 1972.74 392.957L2007.97 336.278C2011.91 329.94 2014 322.625 2014 315.161V186.259C2014 164.168 1996.09 146.259 1974 146.259H1959.9C1951.33 146.259 1942.98 143.507 1936.09 138.408L1801.28 38.5969C1793.78 33.0413 1784.57 30.2857 1775.24 30.8077L1593.48 40.9852C1583.4 41.5495 1573.91 45.9045 1566.9 53.1763L1452.51 171.968C1444.97 179.798 1434.57 184.222 1423.7 184.222H1336.22C1327.98 184.222 1319.94 181.677 1313.2 176.936L1219.25 110.838C1212.52 106.096 1204.48 103.552 1196.24 103.552H996.378C987.129 103.552 978.166 106.757 971.014 112.622L831.117 227.349C823.966 233.214 815.002 236.42 805.753 236.42H626.477C617.84 236.42 609.436 233.625 602.52 228.452L484.243 139.991C477.327 134.819 468.922 132.024 460.286 132.024H155.784C145.394 132.024 135.412 136.066 127.95 143.296Z" fill="#2A8086"/>
<path d="M127.95 173.296L12.1662 285.477C4.38973 293.011 0 303.376 0 314.204V432.84C0 454.931 17.9086 472.84 40 472.84H109.673H446.5H745.28H975.221C979.757 472.84 984.26 473.611 988.537 475.121L1117.69 520.718C1121.97 522.228 1126.47 523 1131 523H1317.33C1321.46 523 1325.56 522.361 1329.49 521.106L1571.86 443.734C1575.8 442.479 1579.9 441.84 1584.03 441.84H1838H1940.32C1954.39 441.84 1967.42 434.448 1974.64 422.373L2008.33 366.064C2012.04 359.858 2014 352.761 2014 345.53V216.259C2014 194.168 1996.09 176.259 1974 176.259H1959.9C1951.33 176.259 1942.98 173.507 1936.09 168.408L1801.28 68.5969C1793.78 63.0413 1784.57 60.2857 1775.24 60.8077L1593.48 70.9852C1583.4 71.5495 1573.91 75.9045 1566.9 83.1763L1452.51 201.968C1444.97 209.798 1434.57 214.222 1423.7 214.222H1336.22C1327.98 214.222 1319.94 211.677 1313.2 206.936L1219.25 140.838C1212.52 136.096 1204.48 133.552 1196.24 133.552H996.378C987.129 133.552 978.166 136.757 971.014 142.622L831.117 257.349C823.966 263.214 815.002 266.42 805.753 266.42H626.477C617.84 266.42 609.436 263.625 602.52 258.452L484.243 169.991C477.327 164.819 468.922 162.024 460.286 162.024H155.784C145.394 162.024 135.412 166.066 127.95 173.296Z" fill="#2A808D" fill-opacity="0.3"/>
<path d="M128.177 104.983L13.249 208.365C4.81586 215.951 0 226.761 0 238.104V343.292C0 365.384 17.9086 383.292 40 383.292H101.8C106.999 383.292 112.148 382.279 116.959 380.308L306.778 302.569C311.589 300.599 316.739 299.585 321.938 299.585H622.086C630.856 299.585 639.383 302.467 646.354 307.788L734.532 375.089C741.503 380.41 750.03 383.292 758.8 383.292H971.167C978.308 383.292 985.319 385.204 991.472 388.829L1114.75 461.463C1120.91 465.088 1127.92 467 1135.06 467H1315.61C1320.86 467 1326.05 465.968 1330.9 463.962L1440.71 418.538L1572.9 384.552C1576.15 383.716 1579.5 383.292 1582.86 383.292H1777.25C1785.34 383.292 1793.24 380.839 1799.9 376.256L1936.46 282.39C1943.13 277.807 1951.03 275.354 1959.12 275.354H1974C1996.09 275.354 2014 257.445 2014 235.354V147.939C2014 125.847 1996.09 107.939 1974 107.939H1959.12C1951.03 107.939 1943.13 105.485 1936.46 100.902L1800.85 7.68683C1793.6 2.70181 1784.91 0.247621 1776.12 0.704499L1592.73 10.2382C1583.1 10.7386 1573.98 14.6979 1567.04 21.3878L1452.33 131.98C1444.87 139.168 1434.92 143.184 1424.57 143.184H1335.46C1327.69 143.184 1320.09 140.921 1313.59 136.672L1218.87 74.7992C1212.36 70.5504 1204.76 68.2877 1196.99 68.2877H995.569C986.815 68.2877 978.302 71.1595 971.337 76.4626L830.794 183.471C823.829 188.774 815.316 191.646 806.562 191.646H625.699C617.544 191.646 609.583 189.153 602.885 184.502L483.878 101.866C477.179 97.2145 469.219 94.7217 461.063 94.7217H154.928C145.05 94.7217 135.521 98.3769 128.177 104.983Z" fill="#2A808D" fill-opacity="0.3"/>
<path d="M38.7221 85.4708H30.4336L33.9858 120.203L34.7752 147.832H44.2477L40.3008 120.203L38.7221 85.4708Z" fill="#216E7A"/>
<path d="M43.0986 152.568H36.4387C35.971 152.568 35.6058 152.972 35.6534 153.438L39.1167 187.301L39.8841 214.162C39.8963 214.589 40.246 214.929 40.6732 214.929H48.4684C48.9488 214.929 49.3178 214.503 49.2499 214.028L45.4317 187.301L43.8872 153.321C43.868 152.9 43.5206 152.568 43.0986 152.568Z" fill="#216E7A"/>
<path d="M59.2283 176.249L51.6313 176.249C51.1671 176.249 50.8031 176.648 50.8452 177.11L52.4821 195.078L52.4821 211.288C52.4821 211.757 52.8889 212.123 53.3554 212.073L61.45 211.208C61.9001 211.16 62.2176 210.744 62.1454 210.297L59.6515 194.871C59.6438 194.823 59.6405 194.776 59.6415 194.728L60.0175 177.055C60.0269 176.613 59.6709 176.249 59.2283 176.249Z" fill="#216E7A"/>
<path d="M48.2295 219.665H41.5695C41.1018 219.665 40.7367 220.069 40.7843 220.535L44.2408 254.332C44.2453 254.376 44.2461 254.42 44.2433 254.463L43.5123 265.793C43.483 266.248 43.8441 266.633 44.3001 266.633H51.9739C52.47 266.633 52.8431 266.181 52.7489 265.694L50.5735 254.454C50.5662 254.417 50.5617 254.378 50.5599 254.34L49.018 220.419C48.9989 219.997 48.6515 219.665 48.2295 219.665Z" fill="#216E7A"/>
<path d="M25.855 234.18C30.448 231.441 37.0304 222.265 37.5101 215.322C37.5402 214.887 37.1903 214.615 36.8258 214.854C33.9608 216.733 25.1104 226.507 24.8749 233.602C24.8573 234.132 25.3998 234.451 25.855 234.18Z" fill="#216E7A"/>
<path d="M22.7912 207.966C24.4809 212.864 31.0165 213.676 35.5685 213.476C35.863 213.463 36.1489 213.277 36.1339 212.982C36.0156 210.67 28.4639 207.472 23.5014 207.076C23.0046 207.036 22.6287 207.495 22.7912 207.966Z" fill="#216E7A"/>
<path d="M48.4333 166.378C54.1603 165.148 63.8949 158.073 66.1926 151.422C66.335 151.01 66.0697 150.64 65.6476 150.749C62.1269 151.657 49.6661 158.681 47.6592 165.558C47.516 166.049 47.9336 166.486 48.4333 166.378Z" fill="#216E7A"/>
<path d="M127.489 187.537C124.035 192.268 113.612 198.282 106.602 197.675C106.167 197.637 105.937 197.245 106.208 196.903C108.47 194.056 119.957 185.532 127.055 186.496C127.562 186.565 127.791 187.124 127.489 187.537Z" fill="#216E7A"/>
<path d="M137.463 105.145C131.303 110.683 114.723 115.748 105.755 112.29C105.348 112.134 105.212 111.684 105.541 111.398C109.049 108.353 128.41 99.8288 137.303 104.01C137.757 104.223 137.836 104.81 137.463 105.145Z" fill="#216E7A"/>
<path d="M111.925 87.2624C112.33 93.7412 107.725 106.092 101.467 110.077C101.099 110.311 100.668 110.146 100.656 109.711C100.548 105.815 104.341 90.3828 110.945 86.7128C111.382 86.4697 111.894 86.7629 111.925 87.2624Z" fill="#216E7A"/>
<path d="M123.619 130.392C120.663 124.144 110.903 115.321 104.238 115.275C103.802 115.272 103.522 115.652 103.72 116.04C105.564 119.651 116.355 131.849 123.098 131.345C123.569 131.31 123.821 130.819 123.619 130.392Z" fill="#216E7A"/>
<path d="M76.4233 84.3673L68.1484 83.892L69.703 118.771L68.9068 146.399L78.3637 146.942L76.0077 119.133L76.4233 84.3673Z" fill="#216E7A"/>
<path d="M100.647 62.3393L92.4678 61L90.3608 95.8502L86.6754 123.243L96.0235 124.774L96.5929 96.8706L100.647 62.3393Z" fill="#216E7A"/>
<path d="M110.069 135.62L99.3818 133.623L96.5018 168.443L91.5853 195.65L103.8 197.932L104.645 169.964L110.069 135.62Z" fill="#216E7A"/>
<path d="M76.9456 151.605L70.2966 151.223C69.8297 151.196 69.4419 151.579 69.4628 152.046L70.9784 186.052L70.2043 212.913C70.192 213.34 70.5216 213.7 70.948 213.724L78.7305 214.171C79.21 214.199 79.6028 213.795 79.5623 213.317L77.2831 186.414L77.6896 152.403C77.6947 151.981 77.3669 151.629 76.9456 151.605Z" fill="#216E7A"/>
<path d="M94.1236 129.262L87.5512 128.186C87.0896 128.11 86.6639 128.45 86.6357 128.917L84.5816 162.895L80.9984 189.527C80.9414 189.951 81.2316 190.342 81.6532 190.411L89.346 191.671C89.82 191.749 90.2529 191.388 90.2627 190.908L90.8136 163.915L94.7801 130.133C94.8293 129.714 94.5401 129.33 94.1236 129.262Z" fill="#216E7A"/>
<path d="M101.541 202.332L92.4718 200.637C92.0023 200.549 91.5501 200.893 91.5109 201.367L88.7049 235.291L83.8536 263.966C83.7786 264.41 84.0923 264.814 84.5423 264.855L94.7061 265.767C95.165 265.809 95.5738 265.454 95.5942 264.998L96.8478 236.813L102.157 203.201C102.222 202.79 101.952 202.408 101.541 202.332Z" fill="#216E7A"/>
<path d="M78.231 218.887L71.5698 218.504C71.1033 218.477 70.7157 218.859 70.7359 219.326L71.8729 245.657C71.8745 245.695 71.8734 245.734 71.8696 245.772L69.9824 264.266C69.938 264.701 70.2556 265.089 70.6908 265.132L80.8034 266.122C81.3088 266.171 81.7288 265.738 81.6631 265.234L79.0465 245.182L78.9752 219.673C78.974 219.255 78.6479 218.911 78.231 218.887Z" fill="#216E7A"/>
<path d="M56.3505 129.094C54.2679 135.277 60.7323 142.083 65.723 146.019C65.9489 146.198 66.2745 146.25 66.4645 146.033C68.3236 143.919 62.5234 133.66 57.4934 128.833C57.1202 128.475 56.5156 128.603 56.3505 129.094Z" fill="#216E7A"/>
<path d="M118.135 218.119C112.147 217.702 108.23 209.609 106.341 203.808C106.252 203.537 106.314 203.213 106.584 203.123C109.028 202.303 116.119 210.994 118.79 217.148C118.999 217.629 118.657 218.156 118.135 218.119Z" fill="#216E7A"/>
<path d="M61.0906 215.291L53.4936 215.291C53.0294 215.291 52.6654 215.69 52.7075 216.152L54.3444 234.119L54.3444 265.36C54.3444 265.829 54.7512 266.195 55.2177 266.145L63.3732 265.274C63.7998 265.228 64.1119 264.85 64.0759 264.423L61.5023 233.841L61.8798 216.097C61.8892 215.655 61.5332 215.291 61.0906 215.291Z" fill="#216E7A"/>
<path d="M1103.51 334.5C1104.75 316.157 1088.42 288.994 1083.01 288C1083.01 288 1053.01 334.5 1039.01 362.5C1039.45 366.844 1041.27 369.142 1041.01 373.5C1040.74 378 1035.35 380.541 1037.51 384.5C1039.87 388.842 1050.01 386.5 1050.01 386.5C1064.01 384 1065.01 363.5 1066.51 363C1069.01 366.5 1071.65 377.5 1070.51 381.5C1069.51 385 1066.37 386.732 1067.51 390C1068.77 393.637 1072.51 395 1076.01 395C1084.51 395.5 1091.51 389 1096.01 383C1104.51 370 1104.51 347.5 1103.51 334.5Z" fill="#0A5D69"/>
<rect x="975" y="272" width="123" height="92" rx="46" fill="#F3F6F7"/>
<path d="M1022.42 362.5C1031.92 334.5 1025.92 286.5 1003.42 276C995.089 276.336 982.424 284 982.424 284C982.424 284 953.449 318.921 950.424 346C950.924 356.5 956.925 373.5 954.924 388C952.424 390.39 951.924 391 950.424 393.5C948.424 397.5 953.924 400 957.924 400C962.924 400 969.3 398.159 974.424 393.5C981.053 387.473 980.424 379.5 982.424 372C985.924 376.5 985.424 393.5 982.924 397.5C979.424 403.5 979.924 405.5 982.424 408C989.424 411.833 1002.92 408 1008.92 400C1017.42 386.5 1018.14 378 1022.42 362.5Z" fill="#0A5D69"/>
<circle cx="948.5" cy="274.5" r="13.5" fill="#0A5D69"/>
<circle cx="989.5" cy="268.5" r="13.5" fill="#0A5D69"/>
<rect x="935" y="264" width="79" height="71" rx="35.5" fill="#F3F6F7"/>
<ellipse cx="989.63" cy="293.603" rx="8.85868" ry="11.6027" transform="rotate(-31.8762 989.63 293.603)" fill="#0A5D69"/>
<ellipse cx="8.85868" cy="11.6027" rx="8.85868" ry="11.6027" transform="matrix(-0.978754 -0.205037 -0.205037 0.978754 967.1 293.633)" fill="#0A5D69"/>
<path d="M968.5 312C969.233 315.72 976 317.5 977 317.5C977.999 317.5 984.484 311.889 982.5 308C980.5 304.5 968 307.5 968.5 312Z" fill="#0A5D69"/>
<ellipse cx="958.5" cy="301" rx="2.5" ry="3" fill="#F3F6F7"/>
<ellipse cx="985.5" cy="293" rx="2.5" ry="3" fill="#F3F6F7"/>
<path d="M1045.18 173H1034.68L1039.18 217L1040.18 252H1052.18L1047.18 217L1045.18 173Z" fill="#216E7A"/>
<path d="M1050.73 258H1042.29C1041.7 258 1041.24 258.512 1041.3 259.102L1045.68 302L1046.66 336.029C1046.67 336.57 1047.11 337 1047.66 337H1057.53C1058.14 337 1058.61 336.461 1058.52 335.859L1053.68 302L1051.73 258.955C1051.7 258.421 1051.26 258 1050.73 258Z" fill="#216E7A"/>
<path d="M1071.16 288L1061.54 288C1060.95 288 1060.49 288.505 1060.54 289.091L1062.62 311.852L1062.62 332.387C1062.62 332.982 1063.13 333.445 1063.72 333.382L1073.98 332.286C1074.55 332.225 1074.95 331.698 1074.86 331.132L1071.7 311.59C1071.69 311.53 1071.68 311.47 1071.69 311.409L1072.16 289.021C1072.17 288.461 1071.72 288 1071.16 288Z" fill="#216E7A"/>
<path d="M1057.23 343H1048.79C1048.2 343 1047.74 343.512 1047.8 344.102L1052.18 386.917C1052.18 386.972 1052.18 387.028 1052.18 387.083L1051.25 401.436C1051.22 402.012 1051.67 402.5 1052.25 402.5H1061.97C1062.6 402.5 1063.07 401.927 1062.95 401.31L1060.2 387.072C1060.19 387.024 1060.18 386.976 1060.18 386.927L1058.23 343.955C1058.2 343.421 1057.76 343 1057.23 343Z" fill="#216E7A"/>
<path d="M1028.88 361.387C1034.7 357.918 1043.04 346.294 1043.65 337.498C1043.69 336.947 1043.24 336.602 1042.78 336.905C1039.15 339.286 1027.94 351.667 1027.64 360.656C1027.62 361.327 1028.31 361.731 1028.88 361.387Z" fill="#216E7A"/>
<path d="M1025 328.18C1027.14 334.385 1035.42 335.413 1041.19 335.159C1041.56 335.143 1041.92 334.907 1041.9 334.534C1041.75 331.604 1032.19 327.553 1025.9 327.052C1025.27 327.001 1024.8 327.583 1025 328.18Z" fill="#216E7A"/>
<path d="M1057.49 275.495C1064.74 273.936 1077.07 264.974 1079.98 256.549C1080.16 256.027 1079.83 255.558 1079.29 255.696C1074.83 256.846 1059.05 265.745 1056.51 274.456C1056.32 275.078 1056.85 275.631 1057.49 275.495Z" fill="#216E7A"/>
<path d="M1157.64 302.3C1153.26 308.293 1140.06 315.912 1131.17 315.142C1130.62 315.095 1130.33 314.597 1130.68 314.165C1133.54 310.558 1148.09 299.759 1157.09 300.981C1157.73 301.068 1158.02 301.777 1157.64 302.3Z" fill="#216E7A"/>
<path d="M1170.27 197.924C1162.47 204.939 1141.46 211.355 1130.1 206.976C1129.59 206.777 1129.41 206.207 1129.83 205.845C1134.28 201.987 1158.8 191.189 1170.07 196.486C1170.64 196.756 1170.74 197.5 1170.27 197.924Z" fill="#216E7A"/>
<path d="M1137.92 175.27C1138.43 183.477 1132.6 199.124 1124.67 204.172C1124.2 204.469 1123.66 204.26 1123.64 203.708C1123.51 198.772 1128.31 179.223 1136.68 174.574C1137.23 174.265 1137.88 174.637 1137.92 175.27Z" fill="#216E7A"/>
<path d="M1152.73 229.907C1148.99 221.992 1136.62 210.814 1128.18 210.757C1127.63 210.753 1127.27 211.234 1127.52 211.726C1129.86 216.3 1143.53 231.753 1152.07 231.114C1152.67 231.07 1152.99 230.448 1152.73 229.907Z" fill="#216E7A"/>
<path d="M1092.94 171.602L1082.46 171L1084.43 215.186L1083.42 250.185L1095.4 250.874L1092.42 215.644L1092.94 171.602Z" fill="#216E7A"/>
<path d="M1123.63 143.697L1113.27 142L1110.6 186.149L1105.93 220.851L1117.77 222.79L1118.5 187.442L1123.63 143.697Z" fill="#216E7A"/>
<path d="M1135.57 236.529L1122.03 234L1118.38 278.111L1112.15 312.577L1127.62 315.468L1128.7 280.038L1135.57 236.529Z" fill="#216E7A"/>
<path d="M1093.61 256.78L1085.18 256.296C1084.59 256.262 1084.1 256.747 1084.13 257.339L1086.05 300.419L1085.07 334.447C1085.05 334.988 1085.47 335.443 1086.01 335.474L1095.87 336.04C1096.47 336.075 1096.97 335.564 1096.92 334.958L1094.03 300.877L1094.55 257.791C1094.55 257.256 1094.14 256.811 1093.61 256.78Z" fill="#216E7A"/>
<path d="M1115.37 228.476L1107.04 227.112C1106.46 227.017 1105.92 227.447 1105.88 228.039L1103.28 271.082L1098.74 304.821C1098.67 305.357 1099.04 305.853 1099.57 305.941L1109.32 307.537C1109.92 307.635 1110.46 307.179 1110.48 306.57L1111.17 272.375L1116.2 229.579C1116.26 229.048 1115.9 228.562 1115.37 228.476Z" fill="#216E7A"/>
<path d="M1124.77 321.042L1113.28 318.895C1112.68 318.784 1112.11 319.219 1112.06 319.819L1108.5 362.796L1102.36 399.121C1102.26 399.683 1102.66 400.196 1103.23 400.247L1116.11 401.403C1116.69 401.455 1117.21 401.007 1117.23 400.428L1118.82 364.723L1125.54 322.144C1125.63 321.622 1125.29 321.139 1124.77 321.042Z" fill="#216E7A"/>
<path d="M1095.24 342.014L1086.8 341.529C1086.21 341.495 1085.71 341.979 1085.74 342.571L1087.18 375.928C1087.18 375.976 1087.18 376.024 1087.18 376.072L1084.79 399.501C1084.73 400.052 1085.13 400.544 1085.68 400.598L1098.49 401.852C1099.13 401.915 1099.67 401.366 1099.58 400.728L1096.27 375.325L1096.18 343.009C1096.18 342.48 1095.76 342.044 1095.24 342.014Z" fill="#216E7A"/>
<path d="M1067.52 228.262C1064.88 236.096 1073.07 244.718 1079.39 249.704C1079.68 249.93 1080.09 249.996 1080.33 249.722C1082.68 247.043 1075.34 234.047 1068.96 227.932C1068.49 227.478 1067.72 227.641 1067.52 228.262Z" fill="#216E7A"/>
<path d="M1145.78 341.041C1138.2 340.513 1133.24 330.26 1130.84 322.912C1130.73 322.569 1130.81 322.158 1131.15 322.044C1134.25 321.005 1143.23 332.015 1146.62 339.812C1146.88 340.421 1146.45 341.088 1145.78 341.041Z" fill="#216E7A"/>
<path d="M1073.52 337.459L1063.9 337.459C1063.31 337.459 1062.85 337.964 1062.9 338.549L1064.98 361.311L1064.98 400.887C1064.98 401.482 1065.49 401.945 1066.08 401.882L1076.41 400.778C1076.95 400.72 1077.35 400.241 1077.3 399.7L1074.04 360.959L1074.52 338.48C1074.53 337.919 1074.08 337.459 1073.52 337.459Z" fill="#216E7A"/>
<circle cx="1701.07" cy="403.214" r="65.0658" fill="#216E7A"/>
<circle cx="1701.07" cy="358.066" r="65.0658" fill="#216E7A"/>
<rect x="1690.47" y="404.974" width="15.1316" height="118.026" rx="7.56579" fill="#1D6874"/>
<circle cx="345.066" cy="174.214" r="65.0658" fill="#216E7A"/>
<circle cx="345.066" cy="129.066" r="65.0658" fill="#216E7A"/>
<rect x="334.474" y="175.974" width="15.1316" height="118.026" rx="7.56579" fill="#1D6874"/>
<circle cx="675.697" cy="199.712" r="44.6974" fill="#216E7A"/>
<circle cx="675.697" cy="168.697" r="44.6974" fill="#216E7A"/>
<rect x="668.421" y="200.921" width="10.3947" height="81.0789" rx="5.19737" fill="#1D6874"/>
</svg>
